<svg id="Thur" xmlns="http://www.w3.org/2000/svg" xmlns:xlink="http://www.w3.org/1999/xlink" width="1000" height="1000" viewBox="0 0 2000 2000">
  <defs>
    <linearGradient id="linear-gradient" x2="0.992" y2="0.992" gradientUnits="objectBoundingBox">
      <stop offset="0" stop-color="#fec55f"/>
      <stop offset="1" stop-color="#fcd06d"/>
    </linearGradient>
  </defs>
  <g id="Shape" transform="translate(0 0)">
    <path id="Shape-2" data-name="Shape" d="M200,100,100,200,0,100,100,0Z" transform="translate(700)" fill="#e45865"/>
  </g>
  <g id="Shape-3" data-name="Shape" transform="translate(0 0)">
    <path id="Shape-4" data-name="Shape" d="M200,100,100,200,0,100,100,0Z" transform="translate(301 1000)" fill="#e45865"/>
  </g>
  <g id="Shape-5" data-name="Shape" transform="translate(0 0)">
    <path id="Shape-6" data-name="Shape" d="M200,100,100,200,0,100,100,0Z" transform="translate(101 1000)" fill="url(#linear-gradient)"/>
  </g>
  <g id="Shape-7" data-name="Shape" transform="translate(0 0)">
    <path id="Shape-8" data-name="Shape" d="M0,200V0H200Z" transform="translate(401 1000)" fill="#98dede"/>
  </g>
  <path id="Shape-9" data-name="Shape" d="M0,0H200V200Z" transform="translate(1 1000)" fill="#ffd4c4"/>
  <g id="Shape-10" data-name="Shape" transform="translate(0 0)">
    <path id="Shape-11" data-name="Shape" d="M200,100,100,200,0,100,100,0Z" transform="translate(900)" fill="url(#linear-gradient)"/>
  </g>
  <g id="Shape-12" data-name="Shape" transform="translate(0 0)">
    <path id="Shape-13" data-name="Shape" d="M200,100A100,100,0,0,1,100,200H0V0H100A100,100,0,0,1,200,100Z" transform="translate(600 200)" fill="#e45865"/>
  </g>
  <g id="Shape-14" data-name="Shape" transform="translate(0 0)">
    <path id="Shape-15" data-name="Shape" d="M100,50a50,50,0,0,1-50,50H0V50a50,50,0,0,1,100,0Z" transform="translate(649 250)" fill="#98dede"/>
  </g>
  <g id="Shape-16" data-name="Shape" transform="translate(0 0)">
    <path id="Shape-17" data-name="Shape" d="M0,200V0H200Z" transform="translate(600)" fill="#98dede"/>
  </g>
  <path id="Shape-18" data-name="Shape" d="M0,0H200V200H0Z" transform="translate(0 0)" fill="#1c528a"/>
  <g id="Shape-19" data-name="Shape" transform="translate(0 0)">
    <path id="Shape-20" data-name="Shape" d="M100,0,200,100,100,200,0,100Z" transform="translate(0 300)" fill="#e45865"/>
  </g>
  <path id="Shape-21" data-name="Shape" d="M100,0,200,100,100,200,0,100Z" transform="translate(0 500)" fill="#ffd4c4"/>
  <path id="Shape-22" data-name="Shape" d="M50,0l50,50L50,100,0,50Z" transform="translate(950 250)" fill="#fff"/>
  <path id="Shape-23" data-name="Shape" d="M100,0,200,100,100,200,0,100Z" transform="translate(0 700)" fill="#1c528a"/>
  <g id="Shape-24" data-name="Shape" transform="translate(0 0)">
    <path id="Shape-25" data-name="Shape" d="M200,100A100,100,0,0,1,100,200H0V0H100A100,100,0,0,1,200,100Z" transform="translate(200 200)" fill="url(#linear-gradient)"/>
  </g>
  <g id="Shape-26" data-name="Shape" transform="translate(0 0)">
    <path id="Shape-27" data-name="Shape" d="M100,0a100,100,0,0,1,0,200H0V100A100,100,0,0,1,100,0Z" transform="translate(200 400)" fill="#e45865"/>
  </g>
  <g id="Shape-28" data-name="Shape" transform="translate(0 0)">
    <path id="Shape-29" data-name="Shape" d="M0,200C0,89.543,89.543,0,200,0V400C89.543,400,0,310.457,0,200Z" transform="translate(400)" fill="url(#linear-gradient)"/>
  </g>
  <path id="Shape-30" data-name="Shape" d="M0,0H200V200Z" transform="translate(200 0)" fill="#ffd4c4"/>
  <g id="Shape-31" data-name="Shape" transform="translate(0 0)">
    <path id="Shape-32" data-name="Shape" d="M200,200H0V0Z" transform="translate(200)" fill="#e45865"/>
  </g>
  <g id="Shape-33" data-name="Shape" transform="translate(0 0)">
    <path id="Shape-34" data-name="Shape" d="M0,0H200V200Z" transform="translate(0 200)" fill="#98dede"/>
  </g>
  <g id="Shape-35" data-name="Shape" transform="translate(0 0)">
    <path id="Shape-36" data-name="Shape" d="M200,200H0V0Z" transform="translate(0 800)" fill="#98dede"/>
  </g>
  <g id="Shape-37" data-name="Shape" transform="translate(0 0)">
    <path id="Shape-38" data-name="Shape" d="M0,200V0H200Z" transform="translate(200 600)" fill="url(#linear-gradient)"/>
  </g>
  <g id="Shape-39" data-name="Shape" transform="translate(0 0)">
    <path id="Shape-40" data-name="Shape" d="M0,0H200V200Z" transform="translate(1000)" fill="#98dede"/>
  </g>
  <g id="Shape-41" data-name="Shape" transform="translate(0 0)">
    <path id="Shape-42" data-name="Shape" d="M100,50a50,50,0,0,1-50,50H0V50a50,50,0,0,1,100,0Z" transform="translate(250 250)" fill="#e45865"/>
  </g>
  <g id="Shape-43" data-name="Shape" transform="translate(0 0)">
    <path id="Shape-44" data-name="Shape" d="M100,0,200,100,100,200,0,100Z" fill="url(#linear-gradient)"/>
  </g>
  <g id="Shape-45" data-name="Shape" transform="translate(0 0)">
    <path id="Shape-46" data-name="Shape" d="M50,0l50,50L50,100,0,50Z" transform="translate(50 50)" fill="#e45865"/>
  </g>
  <g id="Shape-47" data-name="Shape" transform="translate(0 0)">
    <path id="Shape-48" data-name="Shape" d="M50,0l50,50L50,100,0,50Z" transform="translate(50 550)" fill="#98dede"/>
  </g>
  <g id="Shape-49" data-name="Shape" transform="translate(0 0)">
    <circle id="Shape-50" data-name="Shape" cx="50" cy="50" r="50" transform="translate(250 450)" fill="#98dede"/>
  </g>
  <g id="Shape-51" data-name="Shape" transform="translate(0 0)">
    <circle id="Shape-52" data-name="Shape" cx="50" cy="50" r="50" transform="translate(50 750)" fill="#98dede"/>
  </g>
  <g id="Shape-53" data-name="Shape" transform="translate(0 0)">
    <circle id="Shape-54" data-name="Shape" cx="50" cy="50" r="50" transform="translate(250 50)" fill="#98dede"/>
  </g>
  <g id="Shape-55" data-name="Shape" transform="translate(0 0)">
    <path id="Shape-56" data-name="Shape" d="M50,0l50,50L50,100,0,50Z" transform="translate(450 1050)" fill="url(#linear-gradient)"/>
  </g>
</svg>
